<svg version="1.2" baseProfile="tiny-ps" xmlns="http://www.w3.org/2000/svg" viewBox="0 0 18 19" width="18" height="19">
	<title>header</title>
	<defs>
		<linearGradient id="grd1" gradientUnits="userSpaceOnUse"  x1="9" y1="17.593" x2="9" y2="0">
			<stop offset="0" stop-color="#9e7a47"  />
			<stop offset="0.498" stop-color="#c8ae80"  />
			<stop offset="0.502" stop-color="#efdcba"  />
			<stop offset="1" stop-color="#c8ae80"  />
		</linearGradient>
		<linearGradient id="grd2" gradientUnits="userSpaceOnUse"  x1="9" y1="19" x2="9" y2="3.167">
			<stop offset="0" stop-color="#8b602b"  />
			<stop offset="0.5" stop-color="#c2a573"  />
			<stop offset="0.502" stop-color="#ceb589"  />
			<stop offset="1" stop-color="#c2a573"  />
		</linearGradient>
	</defs>
	<style>
		tspan { white-space:pre }
		.shp0 { fill: #1c242a;stroke: url(#grd1);stroke-width: 2 } 
		.shp1 { fill: url(#grd2) } 
	</style>
	<g id="header">
		<g id="userMenu">
			<g id="userMenu">
				<path id="Ellipse 20" class="shp0" d="M9 0C13.97 0 18 3.94 18 8.8C18 13.65 13.97 17.59 9 17.59C4.03 17.59 0 13.65 0 8.8C0 3.94 4.03 0 9 0Z" />
				<path id="Shape 28" class="shp1" d="M11.67 4.5C11.8 5 11.81 5.04 11.8 5.56C11.79 5.76 11.68 6.69 11.71 6.97C11.73 7.21 11.79 7.23 11.89 7.42C12.05 7.76 12 8.22 11.93 8.56C11.9 8.75 11.83 9.01 11.72 9.16C11.59 9.33 11.35 9.33 11.24 9.52C11.09 9.8 11.18 10.2 11.08 10.5C10.97 10.84 10.69 10.87 10.66 11.32C10.8 11.34 10.94 11.36 11.08 11.38C11.22 11.67 11.47 12.25 11.73 12.43C11.95 12.48 12.16 12.54 12.38 12.6C13.14 12.91 13.99 13.28 14.75 13.59C15.44 13.88 16.27 13.98 16.52 14.7C16.52 15.19 16.57 16.34 16.56 16.98C16.56 16.98 16.56 19 9 19C1.44 19 1.44 16.98 1.44 16.98C1.43 16.34 1.48 15.19 1.48 14.7C1.73 13.98 2.56 13.88 3.25 13.59C4.01 13.28 4.86 12.91 5.62 12.6C5.84 12.54 6.05 12.48 6.27 12.43C6.53 12.25 6.78 11.67 6.92 11.38L7.23 11.3C7.16 10.92 6.92 10.89 6.82 10.62C6.78 10.21 6.74 9.8 6.7 9.39C6.7 9.41 6.42 9.34 6.38 9.32C5.98 9.07 5.97 8.06 5.93 7.64C5.91 7.45 6.18 7.29 6.11 6.94C5.67 4.88 6.3 3.92 7.3 3.6C7.99 3.32 9.28 2.81 10.49 3.54L10.79 3.82L11.27 3.9C11.51 4.04 11.67 4.5 11.67 4.5Z" />
			</g>
		</g>
	</g>
</svg>