<svg xmlns="http://www.w3.org/2000/svg" width="111" height="29"><defs><linearGradient id="grd1" gradientUnits="userSpaceOnUse" x1="55.779" y1="27.71" x2="55.779" y2=".793"><stop offset="0" stop-color="#af8954"/><stop offset="1" stop-color="#c6ab77"/></linearGradient></defs><style/><g id="header"><g id="logo1"><path id="Shape 12" d="M110.72 19.76c-.18-.02-.34.08-.49.29-.15.22-.27.39-.35.51a73 73 0 00-1.36 1.93c-.45.66-.95 1.28-1.49 1.85l-.41.41c-.15.16-.31.29-.49.41-.17.11-.35.2-.54.26-.18.07-.37.07-.56.02-.2-.06-.3-.2-.31-.43-.01-.23.03-.49.1-.78.07-.28.15-.56.26-.82.11-.25.18-.43.24-.52.14-.32.29-.64.46-.96.16-.32.34-.65.54-.97.61-1.07 1.31-2.13 2.08-3.18.19-.25.39-.5.58-.74.19-.24.39-.49.61-.74.14-.18.31-.38.52-.6.21-.22.33-.46.35-.71.01-.25-.07-.41-.24-.48a.89.89 0 00-.56-.03c-.66.2-1.32.33-1.97.4-.5.06-1-.03-1.48-.27-.45-.25-.83-.84-1.32-.12-.08.09-.16.21-.23.34-.1.16-.23.57-.35 1.02v.01c-.8 2.58-6.38 10.03-8.87 10.03-.51 0-.88-.19-1.16-.48a.948.948 0 01-.17-.27c-.12-.23-.18-.48-.19-.76-.01-.28.03-.56.12-.84.12-.45.28-.81.46-1.09s.4-.5.65-.68c.24-.18.53-.33.85-.46.33-.12.69-.27 1.1-.43.35-.14.75-.32 1.21-.53.45-.22.91-.47 1.35-.77.45-.29.87-.61 1.27-.96s.71-.72.95-1.13c.24-.4.37-.83.41-1.28.03-.46-.08-.93-.35-1.41-.24-.46-.78-.65-1.6-.56-.76.09-1.5.29-2.23.6-.73.32-1.4.69-2.02 1.14-1 .72-1.85 1.55-2.56 2.51-.69.91-1.25 1.9-1.72 2.95-.17.24-.35.48-.54.7-.3.36-.6.69-.91 1.01-.3.31-.61.63-.91.95-.29.3-.59.6-.89.9-.3.29-.65.51-1.06.65-.14.04-.27.05-.4.03-.14-.02-.2-.12-.2-.3.02-.21.07-.42.16-.64.14-.39.29-.77.47-1.14.18-.36.37-.72.58-1.08.51-.91 1.01-1.83 1.5-2.75.49-.92 1.02-1.83 1.58-2.74.57-.9 1.11-1.79 1.62-2.7.52-.9 1.03-1.82 1.52-2.77.3-.53.6-1.07.89-1.61.3-.53.63-1.05.98-1.55.16-.21.32-.44.47-.67.16-.23.31-.48.44-.74s.23-.52.3-.79c.07-.26.08-.53.03-.8-.07-.38-.23-.55-.48-.54-.24.02-.5.06-.76.11-.16.04-.33.05-.53.03-.19-.02-.39-.02-.59-.02-.2.01-.39.04-.57.08-.17.05-.32.14-.44.29a.5.5 0 00-.12.38c.01.16 0 .3-.02.42-.03.18-.07.34-.11.5-.05.15-.11.29-.18.44-.14.32-.3.62-.48.91-.19.28-.37.58-.54.88-.34.57-.67 1.15-.99 1.73-.33.58-.65 1.16-.96 1.73-.2.36-.39.72-.58 1.08-.2.37-.42.71-.66 1.03-.14.18-.26.31-.34.39a.41.41 0 01-.27.12c-.09 0-.18-.03-.29-.1-.1-.08-.24-.16-.39-.27-.34-.23-.71-.35-1.12-.34-.42.01-.83.08-1.24.22-.41.13-.81.31-1.2.52-.39.21-.72.42-1 .62-.95.66-1.86 1.43-2.73 2.33-.74.75-1.36 1.56-1.87 2.42l-.14.23c-.25.39-.51.77-.8 1.12-.28.36-.57.72-.86 1.08-.36.41-.71.8-1.06 1.17-.35.38-.72.75-1.11 1.13-.07.05-.16.13-.29.24-.12.11-.25.21-.39.31s-.28.17-.42.21c-.14.05-.27.04-.37-.01-.14-.07-.21-.18-.21-.32 0-.15.02-.27.05-.38.14-.62.39-1.21.74-1.77.35-.55.68-1.08 1-1.6.16-.25.31-.5.45-.75l.42-.75c.49-.86.97-1.71 1.45-2.56.47-.85.98-1.68 1.53-2.51.03-.05.08-.12.13-.21s.1-.17.13-.25c.04-.09.04-.17.03-.26a.305.305 0 00-.16-.21c-.14-.09-.28-.11-.42-.04-.14.06-.28.09-.42.09-.3.02-.61.02-.94 0-.32-.02-.62.03-.88.13-.21.09-.37.23-.48.41-.03.03-.1.13-.19.28-.1.15-.14.24-.12.28-.14-.2-.26-.4-.36-.62a.817.817 0 00-.51-.43c-.16-.05-.32-.09-.49-.1l-.49-.06c-.35 0-.69.07-1.01.19-.33.13-.65.25-.96.38-.39.14-.75.31-1.1.5-.34.2-.68.41-1.01.62-.23.16-.45.32-.66.48-.21.16-.41.33-.61.51-.7.63-1.32 1.31-1.87 2.04-.31.42-.61.86-.91 1.31-.08.13-.16.24-.22.32a73 73 0 00-1.36 1.93c-.44.66-.94 1.28-1.49 1.85-.12.12-.26.26-.4.41-.15.16-.32.29-.49.41-.18.11-.36.2-.54.26-.19.07-.38.07-.57.02-.19-.06-.29-.2-.3-.43-.01-.23.02-.49.09-.78.07-.28.16-.56.26-.82.11-.25.19-.43.24-.52.14-.32.3-.64.46-.96a35.285 35.285 0 012.62-4.15c.2-.25.39-.5.58-.74.2-.24.4-.49.61-.74.14-.18.32-.38.53-.6.21-.22.32-.46.34-.71.02-.25-.06-.41-.24-.48a.859.859 0 00-.55-.03c-.67.2-1.33.33-1.98.4-.5.06-.99-.03-1.47-.27-.45-.25-.84-.84-1.32-.12-.09.09-.16.21-.24.34-.09.16-.22.57-.34 1.02v.01c-.81 2.58-5.59 9.55-8.09 9.55-.12 0-.24-.01-.35-.03a.943.943 0 01-.23-.1.891.891 0 01-.34-.49c-.07-.21-.06-.47.02-.77.09-.39.23-.77.43-1.13.19-.35.4-.7.63-1.04.89-1.32 1.75-2.65 2.55-3.99.81-1.34 1.63-2.69 2.46-4.05.17-.3.36-.57.58-.79.21-.22.5-.33.86-.33.27-.02.55-.01.86.04.31.04.58-.01.83-.15.12-.07.23-.22.32-.43.08-.21.07-.37-.06-.48a.744.744 0 00-.38-.12c-.15-.01-.31-.01-.47 0-.17.01-.33.02-.49.02-.16.01-.29 0-.39-.04.14-.5.37-.97.71-1.43.33-.45.62-.9.87-1.33.22-.39.46-.77.69-1.15.24-.37.43-.76.57-1.18.07-.17.15-.37.22-.6.08-.22.08-.42-.01-.6-.14-.25-.34-.37-.6-.36-.27.01-.5.03-.72.06-.17.04-.36.05-.58.03-.21-.02-.42-.03-.63-.03-.21 0-.41.02-.6.06-.2.03-.36.1-.5.21-.13.11-.23.25-.31.42-.08.17-.15.35-.21.53-.06.19-.12.38-.17.57-.05.18-.1.35-.16.49-.16.38-.33.74-.51 1.1-.19.36-.38.71-.57 1.07-.1.2-.22.41-.34.63-.12.22-.26.44-.42.64-.16.21-.34.38-.53.53-.19.14-.41.23-.66.26-.12.02-.28.02-.49-.01-.2-.03-.4-.04-.6-.03-.2.01-.39.05-.55.12-.17.08-.27.21-.31.41-.03.21.02.35.16.42.14.08.31.12.5.13.19 0 .4.01.61.02.21.01.37.06.47.15-.12.05-.21.15-.28.29-.06.15-.11.27-.17.38-.15.29-.37.59-.63.91-.84 1.16-1.65 2.36-2.41 3.59-.58.94-1.12 1.88-1.65 2.84-.01.01-.02.02-.02.03-.3.33-.56.7-.78 1.09-.22.4-.47.77-.75 1.13-.25.34-.5.67-.77.99a5.7 5.7 0 01-.89.88c-.25.2-.49.38-.74.55-.25.17-.53.27-.84.29-.32.03-.56-.07-.71-.31-.16-.24-.29-.5-.37-.77-.11-.25-.17-.52-.17-.83-.01-.3-.03-.6-.04-.88 0-.41 0-.78.02-1.11.02-.33.16-.67.42-1.01.46-.6.94-1.22 1.44-1.85.5-.62 1.08-1.12 1.75-1.5.16-.07.33-.14.5-.21.18-.07.35-.12.53-.15.18-.02.35-.01.51.04.17.06.32.16.46.32.15.2.28.29.41.29.14-.01.29-.09.46-.23.14-.13.3-.32.47-.58.16-.26.29-.54.39-.84.1-.31.14-.6.13-.87a.824.824 0 00-.33-.66c-.24-.2-.53-.28-.85-.27-.33.02-.61.07-.86.16-.39.15-.75.37-1.11.67-.61.5-1.16 1.07-1.64 1.69-.49.63-.98 1.24-1.49 1.85-.13.14-.24.28-.36.4-.11.13-.22.26-.33.4-.1.15-.17.2-.21.16-.03-.03-.05-.11-.04-.22.01-.12.03-.25.06-.39.02-.15.03-.24.03-.3.07-.46.19-.92.35-1.36.16-.45.32-.9.5-1.34.02-.07.05-.17.1-.28.06-.12.1-.24.12-.37.03-.12.04-.24.03-.34a.287.287 0 00-.17-.24.437.437 0 00-.37-.07c-.14.02-.27.05-.37.07-.19.03-.39.18-.58.19-.19.02-.39.15-.58.15h-.46c-.17 0-.3-.08-.41.01-.03.04-.06.04-.07.12 0 .08-.03.12-.06.17-.14.34-.31.66-.5.98-.2.32-.39.62-.58.93-.2.34-.4.67-.61 1-.21.33-.43.65-.66.97-.14.2-.29.39-.46.57-.16.17-.3.38-.41.61v.02c-.01.01-.02.01-.02.02-.09.12-.15.21-.19.28-.3.5-.61.98-.95 1.42-.33.45-.68.9-1.05 1.37-.14.16-.27.31-.39.45l-.4.46c-.16.14-.31.29-.45.45-.14.17-.3.32-.47.46-.14.11-.3.23-.48.36-.17.14-.36.18-.55.12-.39-.07-.4-.58-.05-1.52.26-.72.59-1.39 1-2.01.44-.68.85-1.39 1.22-2.12.38-.73.8-1.44 1.26-2.12.26-.39.53-.83.81-1.31.13-.21.25-.43.38-.64.14-.22.23-.44.28-.67.04-.11.07-.23.11-.38.03-.14.05-.27.05-.39 0-.11-.03-.21-.09-.29-.06-.08-.18-.12-.36-.12-.17 0-.35.01-.51.04-.17.03-.34.03-.52.01-.15-.01-.31-.03-.47-.04-.16-.01-.32.01-.47.04-.23.04-.44.09-.61.16-.12.08-.2.15-.24.22-.03.07-.08.17-.13.29-.02.04-.05.11-.09.22-.05.1-.09.22-.12.35-.25.78-.58 1.53-1 2.23-.42.71-.85 1.4-1.27 2.08-.3.52-.59.98-.89 1.39-.23.32-.46.64-.69.97-.23.32-.46.63-.71.93-.14.18-.27.37-.39.55-.13.19-.27.36-.43.53-.1.1-.27.28-.5.53-.23.25-.48.48-.76.7-.28.21-.55.36-.8.45-.26.09-.47.01-.62-.24-.13-.19-.14-.44-.03-.72.11-.29.2-.53.29-.72.25-.5.51-.98.8-1.44.29-.45.59-.91.89-1.38.29-.46.57-.93.83-1.39.25-.46.52-.93.8-1.39.25-.41.49-.83.74-1.25.24-.42.45-.86.63-1.33.07-.19.15-.43.22-.72.08-.28.08-.53-.01-.72-.03-.11-.11-.18-.22-.22-.12-.03-.24-.05-.38-.04-.15.01-.29.03-.43.06-.14.02-.24.04-.31.04-.23 0-.46-.02-.68-.06a1.91 1.91 0 00-.67.03c-.3.07-.45.21-.46.43-.01.21-.04.45-.09.7-.04.17-.08.34-.14.49-.07.15-.14.31-.23.47-.19.41-.41.8-.64 1.18-.24.37-.47.75-.7 1.12-.25.43-.5.86-.77 1.28-.22.36-.44.71-.65 1.06.02-.08.03-.16.05-.25.03-.25.05-.59.06-1.01.01-.43-.02-.86-.08-1.29-.06-.43-.18-.81-.35-1.15-.18-.34-.43-.55-.77-.62-.26-.07-.43 0-.5.22-.07.21-.09.41-.05.59.11.62.16 1.2.17 1.75.01.54-.08 1.13-.27 1.75-.15.45-.31.92-.51 1.42-.19.5-.42.97-.69 1.41-.28.44-.6.82-.98 1.14-.38.32-.83.53-1.36.62a4.7 4.7 0 01-1.35.01c-.45-.06-.89-.16-1.33-.3-.44-.13-.88-.28-1.31-.45-.43-.17-.85-.33-1.28-.47-.08-.04-.2-.07-.35-.09-.15-.03-.3-.07-.44-.11-.14-.05-.26-.1-.37-.17-.1-.08-.14-.18-.13-.33.02-.17.13-.35.32-.51.19-.16.35-.3.47-.42.3-.31.58-.64.83-1 .26-.35.51-.71.75-1.07.41-.57.79-1.16 1.16-1.77.37-.6.71-1.24 1.01-1.9.1-.25.2-.51.28-.77.09-.27.27-.48.53-.62.46-.25.94-.49 1.44-.72.5-.24.99-.48 1.46-.73 1-.5 1.95-1.1 2.86-1.8.9-.71 1.76-1.46 2.57-2.24.4-.41.79-.83 1.16-1.26.37-.43.72-.88 1.05-1.34.25-.3.48-.62.69-.94.21-.32.4-.65.58-.99.19-.39.35-.86.47-1.39.12-.54.16-1.05.11-1.54a2.58 2.58 0 00-.52-1.3c-.29-.38-.73-.6-1.33-.67-.91-.09-1.84.05-2.78.41-.94.37-1.78.8-2.51 1.3-1.01.66-1.94 1.45-2.8 2.36-.86.91-1.64 1.86-2.34 2.84-.44.59-.85 1.2-1.21 1.82-.37.63-.73 1.26-1.09 1.9-.17.33-.34.65-.5.97-.15.32-.31.64-.47.96-.12.25-.25.51-.38.77s-.29.47-.46.65c-.18.18-.39.31-.64.39-.24.08-.53.08-.87-.01-.72-.2-1.33-.52-1.84-.97-.51-.44-.9-.97-1.19-1.56-.28-.6-.45-1.25-.51-1.93-.06-.69 0-1.38.17-2.08.14-.61.37-1.19.7-1.75.32-.57.72-1.06 1.19-1.49.46-.43.98-.77 1.56-1.03.58-.26 1.2-.39 1.85-.39.12 0 .33.03.62.09.29.07.57.1.85.11.28.01.52-.03.7-.11.19-.08.23-.27.15-.57-.09-.27-.25-.45-.48-.55-.23-.1-.48-.16-.76-.18-.28-.01-.56 0-.84.03-.29.04-.51.06-.69.08-.95.14-1.85.43-2.71.86-.74.37-1.43.83-2.07 1.38a8.94 8.94 0 00-1.65 1.83 9.41 9.41 0 00-.92 1.76c-.26.65-.4 1.3-.4 1.94 0 .84.12 1.63.36 2.38s.68 1.42 1.33 1.99c.35.32.75.59 1.19.8.43.21.89.38 1.37.51.43.11.88.16 1.33.15.44-.01.88.03 1.3.12.02 0-.03.14-.16.41-.12.28-.26.59-.42.93l-.45.96c-.14.3-.22.48-.23.54-.29.57-.58 1.14-.89 1.7-.3.56-.69 1.07-1.14 1.54-.21.21-.44.32-.67.31-.24-.01-.5-.04-.78-.1a12.6 12.6 0 00-1.98-.16c-.68 0-1.34.05-1.97.14-.41.05-.8.09-1.18.13-.38.04-.77.12-1.17.27-.35.12-.69.28-1.01.48-.33.2-.59.43-.79.7-.21.26-.32.56-.35.88-.02.32.09.68.36 1.07.33.48.76.78 1.28.9.51.12 1.04.2 1.56.25.48.04.93.04 1.37.02.44-.03.89-.09 1.35-.18.49-.1.97-.23 1.43-.37.47-.14.92-.32 1.36-.54.41-.19.79-.35 1.15-.45.36-.11.77-.09 1.22.05.56.2 1.1.4 1.62.62.52.21 1.07.36 1.65.45.46.07.93.16 1.41.23.48.06.96.12 1.44.12h.02c1 0 1.97-.28 2.89-.67.92-.39 1.73-.96 2.44-1.67.11-.13.21-.26.31-.39-.01.06-.03.11-.04.16-.08.43-.06.87.04 1.31.04.18.11.38.23.59.11.22.25.37.4.46.09.05.18.09.25.13.08.04.17.07.25.11.2.07.41.1.65.09.24-.01.45-.03.65-.07.33-.07.64-.21.92-.41.28-.21.55-.41.81-.6.48-.38.95-.83 1.43-1.34.16-.15.31-.3.46-.47.15-.17.26-.29.33-.36.16-.2.24-.29.26-.26.02.03-.01.2-.08.52-.09.34-.13.74-.14 1.18-.01.45.1.81.33 1.1.24.32.58.52 1 .59.42.07.81.06 1.16-.03.52-.14 1.01-.4 1.45-.77.26-.23.5-.46.73-.69 0 .01-.01.02-.01.03-.02.31.03.61.17.9.2.34.5.5.93.58.08.02.17-.02.26-.02h.26c.3 0 .59-.03.86-.15.27-.11.53-.23.78-.41.22-.16.43-.33.63-.54.19-.2.38-.41.58-.62.16-.2.32-.38.49-.56.16-.18.32-.36.48-.56.04-.04.06-.07.07-.09.01-.03.03-.03.06.01.06.04.1.12.12.24.03.13.05.22.07.27.12.43.29.83.51 1.22.22.38.53.69.94.92.19.11.4.18.62.22.22.03.43.03.64 0 .2-.02.41-.06.65-.12.24-.07.45-.16.64-.29.34-.19.66-.43.98-.71.32-.27.6-.57.84-.89.11-.14.23-.28.36-.4.13-.13.26-.26.38-.41.21-.28.42-.55.62-.82-.04.2-.08.4-.11.61-.06.52-.03 1.01.08 1.49.09.36.27.68.55.96.35.66 1.05.82 1.73.78.36.03.71-.01 1.06-.12.31-.11.62-.25.92-.42 4.69-2.33 7.64-9 8.33-9.77.18-.13.36-.22.47-.21.18.04.34.1.5.19.16.09.33.13.5.13.05 0 .13 0 .22-.02.1-.02.19-.03.27-.03.08 0 .14.01.18.04.05.03.04.09-.01.2-.05.14-.19.3-.41.46-.22.16-.38.29-.49.4-.61.62-1.23 1.29-1.84 1.98-.62.7-1.12 1.45-1.5 2.25-.14.27-.27.56-.4.86-.12.3-.23.61-.31.91-.09.3-.14.61-.16.92-.02.32.02.63.1.95.07.27.19.49.36.66.17.17.35.3.57.39.21.09.44.14.69.16.26.02.51.01.75-.03.73-.14 1.36-.44 1.92-.89.55-.46 1.05-.95 1.51-1.49.21-.25.42-.51.63-.79.2-.26.38-.51.56-.76-.04.23-.08.45-.11.67-.04.28-.05.59-.04.92.01.33.06.65.15.95.08.3.22.58.4.82.19.24.44.41.76.52l.05.03c.4.1.82.1 1.26-.02.44-.11.84-.28 1.19-.49.68-.4 1.3-.89 1.84-1.48.13-.14.24-.27.36-.4.11-.12.24-.25.38-.37.07-.07.15-.16.22-.26.08-.09.17-.15.25-.17a.5.5 0 01-.02.27c-.04.09-.07.18-.11.26-.08.4-.09.8-.01 1.21.08.41.27.76.57 1.05.31.32.66.47 1.05.45.39-.02.77-.12 1.16-.31.39-.19.75-.43 1.09-.72.35-.3.63-.57.86-.82l.99-1.08.96-1.11c.14-.16.27-.32.4-.47-.17.51-.29 1.03-.36 1.55-.1.71-.03 1.34.2 1.92.22.57.73.92 1.5 1.07.35.03.67.02.97-.03.43-.07.81-.2 1.15-.39.34-.19.67-.41.97-.67.31-.26.6-.53.87-.83.28-.29.54-.59.81-.9.09-.08.16-.17.24-.25.07-.08.11-.14.13-.17.03-.08.08-.11.13-.11-.04.27-.06.48-.08.64-.02.16-.04.32-.05.47-.02.15-.03.25-.03.28 0 .25.04.5.11.75s.19.47.36.64c.25.26.55.39.9.41.35.01.68 0 .98-.06.26-.05.5-.14.72-.25.22-.12.43-.26.62-.44a30.6 30.6 0 002.32-2.24c.29-.32.57-.64.85-.96-.08.35-.14.71-.15 1.07-.03.52.05 1.02.22 1.48.18.47.52.85 1.03 1.16.36.21.76.29 1.18.34.4.09.85.34 1.25-.05h.01c.18 0 .35-.02.5-.07.05-.01.09 0 .14-.01.17-.05.32-.09.42-.13.02 0 .04 0 .06-.01.01-.01.02-.01.04-.02.05-.02.08-.03.08-.03a.3.3 0 00.08-.04 7.41 7.41 0 001.71-1.03c0-.01.01-.01.01-.02 3.79-2.83 6.17-8.11 6.78-8.8.17-.13.35-.22.47-.21.17.04.34.1.5.19.15.09.32.13.5.13.05 0 .12 0 .22-.02s.18-.03.26-.03c.08 0 .14.01.19.04.04.03.04.09-.01.2-.06.14-.19.3-.41.46-.22.16-.39.29-.49.4-.62.62-1.23 1.29-1.84 1.98-.62.7-1.12 1.45-1.51 2.25-.14.27-.27.56-.39.86-.13.3-.23.61-.32.91-.09.3-.14.61-.16.92-.01.32.02.63.11.95.07.27.19.49.35.66.17.17.36.3.57.39.21.09.44.14.7.16.25.02.5.01.75-.03.72-.14 1.36-.44 1.91-.89.55-.46 1.06-.95 1.52-1.49.21-.25.42-.51.63-.79.21-.28.41-.55.6-.82.25-.3.5-.61.74-.92.25-.31.49-.63.74-.95.05-.06.15-.18.3-.38.15-.19.29-.4.41-.63.12-.22.2-.43.23-.61.02-.19-.07-.29-.28-.31zm-15.14.13c.1-.19.2-.38.32-.56.11-.18.19-.3.22-.35.25-.37.5-.73.77-1.08.26-.35.53-.7.81-1.06.09-.11.19-.22.29-.34.11-.11.21-.23.32-.36l.52-.52c.22-.21.43-.34.64-.39.16-.03.28.01.38.15.1.13.14.27.12.41-.02.36-.12.71-.32 1.05-.19.34-.39.64-.6.91-.36.46-.76.91-1.2 1.34-.45.43-.93.79-1.44 1.1-.03.01-.14.07-.3.16-.17.09-.32.15-.46.19-.18.03-.26-.02-.24-.15.02-.14.07-.3.17-.5zm-75.77-6.48c.33-.63.66-1.26.96-1.9.31-.65.62-1.28.94-1.9.37-.75.75-1.47 1.16-2.16.4-.69.82-1.38 1.26-2.08.35-.55.72-1.1 1.11-1.63a5.695 5.695 0 011.94-1.7c.25-.15.51-.28.79-.38.27-.1.52-.14.75-.12.23.02.38.15.47.38.12.32.15.68.08 1.08-.07.4-.19.8-.37 1.19-.17.4-.37.77-.58 1.13-.21.36-.4.67-.58.94-.47.73-.99 1.45-1.55 2.15-.56.71-1.17 1.38-1.82 2.03-.65.64-1.33 1.23-2.04 1.78-.71.54-1.46 1.01-2.23 1.4-.14.07-.24.11-.32.1-.07-.01-.06-.11.03-.31zM7.58 25.14c-.24.36-.57.66-.98.91-.42.25-.86.42-1.33.51-.5.09-.98.09-1.45 0a2.18 2.18 0 01-1.22-.67c-.15-.16-.26-.38-.31-.65-.05-.28-.01-.52.13-.71.11-.16.25-.29.45-.38.19-.09.4-.15.62-.19.22-.03.44-.04.66-.02.22.02.41.03.59.05.1.02.33.05.68.11.36.05.71.12 1.07.21.36.09.66.21.91.35.25.14.31.3.18.48zm33.23-7.2c0 .03-.08.07-.09.1-.16.68-.32 1.37-.4 2.08-.09.71-.15 1.42-.15 2.13 0 .21-.02.42-.03.63-.02.2-.1.41-.22.6-.1.2-.23.37-.38.52-.15.16-.3.3-.44.45-.14.14-.29.28-.43.42-.15.15-.32.28-.49.41-.05.03-.14.09-.27.18-.12.09-.24.17-.37.22a.55.55 0 01-.32.05c-.1-.02-.16-.1-.18-.27 0-.09.01-.17.03-.25.02-.08.02-.16 0-.25-.03-.17-.11-.32-.22-.47a.604.604 0 00-.44-.26c-.11-.01-.23 0-.35.01.02-.03.05-.06.08-.09l1.12-1.39c.19-.23.37-.46.54-.67.16-.22.32-.45.46-.7.05-.07.11-.16.19-.27.08-.1.15-.22.21-.34.02-.04.04-.08.05-.11.16-.22.3-.41.42-.56.17-.24.33-.47.47-.7.14-.23.28-.47.42-.72.09-.15.25-.3.34-.47.1-.17.45-.3.45-.39v.11zm30.88 3.47c-.51.74-1.04 1.47-1.6 2.18-.34.41-.69.8-1.07 1.16-.38.37-.8.67-1.28.9-.28.13-.53.17-.76.12-.23-.04-.42-.22-.56-.52a1.13 1.13 0 01-.09-.58c.03-.2.08-.41.15-.63.07-.21.15-.41.25-.61.09-.2.18-.38.25-.54.19-.37.38-.74.58-1.1.19-.35.4-.7.63-1.04.23-.34.45-.68.66-1.02.21-.34.44-.67.68-.99.43-.59.89-1.2 1.39-1.82.5-.63 1.06-1.12 1.7-1.47.22-.13.5-.23.81-.3.32-.07.57.02.77.27.16.21.21.45.17.72-.04.27-.1.52-.17.75-.14.39-.31.77-.5 1.13-.2.35-.39.71-.58 1.07-.44.8-.92 1.57-1.43 2.32zm14.59-2.51c-.15.27-.29.51-.41.72-.4.75-.85 1.47-1.34 2.15-.5.68-1 1.34-1.53 1.98-.39.46-.79.86-1.2 1.3-.41.43-.9.89-1.46.89h-.03c-.4.39-.77.19-1.09-.04-.33-.22-.46-.54-.41-1.03.05-.68.24-1.3.57-1.89.32-.58.67-1.13 1.04-1.65.42-.59.84-1.17 1.27-1.75.43-.58.9-1.15 1.39-1.7.17-.2.38-.43.63-.71.25-.27.51-.54.79-.79s.58-.46.88-.63c.31-.17.61-.24.91-.22.21.03.39.13.54.3.15.17.23.36.25.55.02.27-.01.55-.09.83-.08.29-.18.57-.3.86-.13.29-.26.56-.41.83z" fill="url(#grd1)"/></g></g></svg>