<svg xmlns="http://www.w3.org/2000/svg" width="28" height="33"><defs><linearGradient id="grd1" gradientUnits="userSpaceOnUse" x1="14" y1="32.028" x2="14" y2=".024"><stop offset="0" stop-color="#af8954"/><stop offset="1" stop-color="#c6ab77"/></linearGradient></defs><style/><g id="header"><g id="logo1"><path id="Shape 13" d="M.29 9.21c.09-.07.19-.11.29-.11-.12-.59 0-.98.28-1.21.35-.29.76-.03 1.36.65l.02-.02c-.01.01-.02 0 .01.03.18.24.45.28.68.09.16-.13.22-.38.11-.51l-.23-.29c-.34-.42-.02-.94.4-1.29l4.95-4.07c.42-.34.65-.27.98.16l.29.35c.08.09.44-.1.57-.21.23-.19.38-.52.19-.75-.02-.03.04-.08.04-.07l.01-.02c-.53-.73-.7-1.19-.35-1.48.28-.22.71-.23 1.25 0 .03-.09.07-.19.16-.27.74-.6 2.59.47 4.15 2.41 1.55 1.93 2.21 3.99 1.48 4.6-.09.07-.19.11-.29.11.11.59.06 1.05-.22 1.28-.37.3-.78.04-1.37-.65l-.01.02c-.04.03-.61-.07-.81.09-.13.11-.4.42-.33.51l.3.37c.2.25.38.48.31.77-.12-.47-1.54-2.39-2.85-4.02-1.45-1.81-2.54-2.89-2.54-2.89-.11.22 1.16 1.74 2.26 3.11 1.06 1.32 2.95 3.86 3.25 3.87-.06.16-.1.36-.24.47l-.95.78c.11-.08.25-.08.33.02.09.11.06.25-.05.33l-.11.1c.07-.06.38.23.54.43.74.93 1.11 2.11 1.11 3-.11-.2-.37-.71-.53-1.42-.22-.96-.83-2.12-1.28-1.76-.44.37.63 1.01.89 1.83.21.67.72 1.2.91 1.38 0 .08-.01.15-.02.22.51-.27.96-.33 1.14-.11.12.15.07.43-.1.74.43.04.86.26 1.15.62.51.63 1.1 2.48 2.54 4.28 1.49 1.85 6.15 6.54 7.06 7.67 1.04 1.3 1.3 2.83.58 3.42l-.03.03c-.72.59-2.15.01-3.19-1.29-.91-1.13-4.5-6.71-5.98-8.56-1.45-1.79-3.11-2.75-3.62-3.38-.29-.37-.41-.83-.36-1.27-.34.11-.62.1-.74-.06-.17-.21-.02-.64.34-1.09-.89-.1-2.1-.72-2.92-1.74-.16-.21-.38-.56-.31-.62l-.11.09c-.11.09-.26.07-.35-.04-.08-.1-.07-.26.04-.35l-1.01.83c-.42.34-1.16.24-1.49-.18l-.25-.31c-.1-.13-.33-.08-.48.05-.21.17-.05.6-.09.64l-.01.01c.54.73.71 1.18.34 1.48-.27.23-.73.2-1.28-.03-.02.09-.08.17-.17.25-.74.61-2.6-.47-4.15-2.41-1.56-1.94-2.22-4-1.49-4.61zm16.77-3.42s-.94-1.73-2.11-3.25S12.66.3 12.66.3c2.09 1.92 4.4 5.49 4.4 5.49zm-4.82-3.75c.38-.26.84.5 1.95 1.56 1.34 1.69 2.67 3.54 2.65 3.45-.02-.09-1.31-2.45-2.57-4.01C13.02 1.48 11.55.13 11.55.13c-.08.01-.09.07-.04.16-.12-.01-.15.13-.24.25-.22.3-.2 1.39-.2 1.39.17.62.79.37 1.17.11zm-.18 1.68c.09-.07-.09-.44-.4-.83-.31-.38-.64-.64-.72-.56-.09.07.09.44.4.83.31.38.63.64.72.56zm-.78.35c.14-.11.1-.41-.11-.66-.2-.25-.47-.36-.61-.24-.14.11-.09.41.11.66.2.25.47.36.61.24zm4.81 11.28c-.15-.19-.36-.27-.47-.18-.11.09-.08.32.07.5.16.19.37.27.48.18.11-.09.07-.32-.08-.5zm1.31 3.23c1.38 1.55 2.77 2.82 5.85 6.99 3.09 4.17 3.73 4.99 4.13 4.66.4-.33-1.02-2.12-1.97-3.29-.96-1.16-1.68-1.55-4.08-4.39-2.4-2.83-3.85-4.51-4.09-5.37-.25-.85-.5-1.07-.83-1.03-.45.05-.39.87.99 2.43zm-8.07-5.01s.21.14 2.36-1.62c2.1-1.73 1.81-1.81 1.81-1.81-.27.06-.64.03-.83-.21-.27-.33-4.49-5.58-4.75-5.91-.25-.31-.1-.85.16-1.13-.03.02 0-.01-.03.01 0 0-.17-.17-2.32 1.59-2.26 1.86-2.09 2.03-2.09 2.03l-.15.14c.33-.2.66-.06.91.25.27.33 4.48 5.58 4.75 5.91.19.24.3.48.18.75zm-.2.64c.11-.22-1.15-1.75-2.25-3.12S3.87 7.1 3.66 7.27c-.21.17 1.45 2.27 2.9 4.07 1.45 1.81 2.57 2.87 2.57 2.87zM4.32 9.8c.13-.11.07-.4-.13-.65s-.47-.37-.6-.26c-.13.11-.08.4.12.65s.47.36.61.26zm-1.34 1.38c-.09-.24-1.09-1.37-.89-1.59.11-.12.23-.03.36.14l.09.12c.07.1.15.22.24.33.03.04.06.06.08.08.26.34.56.71.83 1.05.92 1.14 1.61 1.82 1.61 1.82.06-.13-.78-1.05-1.47-1.92-.33-.4-.82-.93-1.21-1.42 0 0-.51-.91-.78-.98-.02-.01-.01-.04-.01-.03-.26.02-.64.47.04 1.31.68.84 1.2 1.34 1.11 1.09z" fill="url(#grd1)"/></g></g></svg>