<svg xmlns="http://www.w3.org/2000/svg" width="16" height="16"><defs><linearGradient id="grd1" gradientUnits="userSpaceOnUse" x1="8" y1="16" x2="8" y2=".167"><stop offset="0" stop-color="#8b602b"/><stop offset=".5" stop-color="#c2a573"/><stop offset=".502" stop-color="#ceb589"/><stop offset="1" stop-color="#c2a573"/></linearGradient></defs><style/><g id="header"><g id="userMenu"><g id="userMenu"><path id="Shape 28" d="M10.67 1.5c.13.5.14.54.13 1.06-.01.2-.12 1.13-.09 1.41.02.24.08.26.18.45.16.34.11.8.04 1.14-.03.19-.1.45-.21.6-.13.17-.37.17-.48.36-.15.28-.06.68-.16.98-.11.34-.39.37-.42.82l.42.06c.14.29.39.87.65 1.05.22.05.43.11.65.17.76.31 1.61.68 2.37.99.69.29 1.52.39 1.77 1.11 0 .49.05 1.64.04 2.28 0 0 0 2.02-7.56 2.02S.44 13.98.44 13.98c-.01-.64.04-1.79.04-2.28.25-.72 1.08-.82 1.77-1.11.76-.31 1.61-.68 2.37-.99.22-.06.43-.12.65-.17.26-.18.51-.76.65-1.05l.31-.08c-.07-.38-.31-.41-.41-.68L5.7 6.39c0 .02-.28-.05-.32-.07-.4-.25-.41-1.26-.45-1.68-.02-.19.25-.35.18-.7C4.67 1.88 5.3.92 6.3.6 6.99.32 8.28-.19 9.49.54l.3.28.48.08c.24.14.4.6.4.6z" fill="url(#grd1)"/></g></g></g></svg>