<svg xmlns="http://www.w3.org/2000/svg" width="71" height="74"><defs><filter x="-50%" y="-50%" width="200%" height="200%" id="a"><feGaussianBlur stdDeviation="7.2"/></filter><filter x="-50%" y="-50%" width="200%" height="200%" id="b"><feGaussianBlur stdDeviation="7.8"/></filter><filter x="-50%" y="-50%" width="200%" height="200%" id="c"><feGaussianBlur stdDeviation="2.9"/></filter><filter x="-50%" y="-50%" width="200%" height="200%" id="d"><feGaussianBlur stdDeviation="1.3"/></filter><linearGradient id="e" gradientUnits="userSpaceOnUse" x1="35" y1="29" x2="35" y2="16"><stop offset="0" stop-color="#c5c8c9"/><stop offset="1" stop-color="#fff"/></linearGradient><linearGradient id="f" gradientUnits="userSpaceOnUse" x1="35" y1="43" x2="35" y2="7"><stop offset="0" stop-color="#577084"/><stop offset="1" stop-color="#aab7c1"/></linearGradient><linearGradient id="g" gradientUnits="userSpaceOnUse" x1="35" y1="43" x2="35" y2="7"><stop offset="0" stop-color="#ae8852"/><stop offset="1" stop-color="#c7ae79"/></linearGradient></defs><path d="M35 20c10.49 0 19 8.28 19 18.5S45.49 57 35 57s-19-8.28-19-18.5S24.51 20 35 20z" filter="url(#a)" fill="#bb9c66"/><path d="M35 3c12.15 0 22 9.85 22 22s-9.85 22-22 22-22-9.85-22-22S22.85 3 35 3z" fill="#1c242a"/><path d="M35 1c6.08 0 11 4.92 11 11s-4.92 11-11 11-11-4.92-11-11S28.92 1 35 1z" filter="url(#b)" fill="#3e4f5b"/><path fill-rule="evenodd" d="M34 46C20.25 46 9.09 34.9 9 21.17 12.11 32.04 22.13 40 34 40s21.89-7.96 25-18.83C58.91 34.9 47.75 46 34 46z" style="mix-blend-mode:multiply" filter="url(#c)" fill="#3e4f5b"/><path fill-rule="evenodd" d="M35 0c13.81 0 25 11.19 25 25S48.81 50 35 50 10 38.81 10 25 21.19 0 35 0zM16 25c0 10.49 8.51 19 19 19s19-8.51 19-19S45.49 6 35 6s-19 8.51-19 19z" fill="#bb9c66"/><path d="M19 18s-4.32 6.24-3 13c1.32 6.76 8.05 14 19 14s17.34-7 19-14c1.66-7-11.94-15.03-13-15-1.06.03-22.17-.04-22 2zm-9 7S13.84 2 35 2s25 23 25 23V0H10v25z" style="mix-blend-mode:screen" opacity=".82" filter="url(#d)" fill="#bb9c66"/><path d="M19 32s-4.32-6.24-3-13c1.32-6.76 8.05-14 19-14s17.34 7 19 14c1.66 7-11.94 15.03-13 15-1.06-.03-22.17.04-22-2zm-9-7s3.84 23 25 23 25-23 25-23v25H10V25z" style="mix-blend-mode:multiply" opacity=".82" filter="url(#d)" fill="#bb9c66"/><path fill-rule="evenodd" d="M34.5 2a23.4 23.4 0 0116.65 6.92A24.906 24.906 0 0035 3c-9.7 0-18.12 5.53-22.26 13.61C16.25 8.04 24.67 2 34.5 2zm0 44c-6.51 0-12.39-2.64-16.65-6.91C22.21 42.77 27.84 45 34 45c9.7 0 18.12-5.53 22.26-13.61C52.75 39.96 44.33 46 34.5 46z" fill="#fff"/><path d="M35.34 26.33l-.55-.83-11.64 7.79.56.83 11.63-7.79z" fill="#b6ccde"/><path d="M35 23c1.66 0 3 1.34 3 3s-1.34 3-3 3-3-1.34-3-3 1.34-3 3-3zm0 2l1 2 10-10-2-1-9 9zm0 2v-2l-11-4v2l11 4z" fill="url(#e)"/><path fill-rule="evenodd" d="M34 7h2v3.03a16.446 16.446 0 00-2 0V7zm4.69.35l1.93.52-.78 2.93c-.63-.22-1.27-.39-1.93-.52l.78-2.93zm4.44 1.56l1.74 1-1.52 2.63c-.55-.37-1.13-.71-1.73-1l1.51-2.63zm3.89 2.66l1.42 1.41-2.15 2.14c-.44-.5-.91-.97-1.41-1.41l2.14-2.14zm3.07 3.56l1 1.74-2.63 1.51c-.29-.6-.63-1.18-1-1.73l2.63-1.52zm2.04 4.25l.52 1.93-2.93.78c-.13-.66-.3-1.3-.52-1.93l2.93-.78zM53 24v2h-3.03a16.446 16.446 0 000-2H53zm-.35 4.69l-.52 1.94-2.93-.79c.22-.63.39-1.27.52-1.93l2.93.78zm-1.56 4.44l-1 1.74-2.63-1.52c.37-.55.71-1.13 1-1.73l2.63 1.51zm-2.65 3.89l-1.42 1.42-2.14-2.15c.5-.44.97-.91 1.41-1.41l2.15 2.14zm-3.57 3.07l-1.74 1-1.51-2.63c.6-.29 1.18-.63 1.73-1l1.52 2.63zm-4.25 2.04l-1.93.52-.78-2.93c.66-.13 1.3-.3 1.93-.52l.78 2.93zM36 43h-2v-3.03a16.446 16.446 0 002 0V43zm-4.69-.35l-1.93-.52.78-2.93c.63.22 1.27.39 1.93.52l-.78 2.93zm-4.44-1.56l-1.74-1 1.52-2.63c.55.37 1.13.71 1.73 1l-1.51 2.63zm-3.89-2.65l-1.42-1.42 2.15-2.14c.44.5.91.97 1.41 1.41l-2.14 2.15zm-3.07-3.57l-1-1.74 2.63-1.51c.29.6.63 1.18 1 1.73l-2.63 1.52zm-2.04-4.24l-.52-1.94 2.93-.78c.13.66.3 1.3.52 1.93l-2.93.79zM17 26v-2h3.03a16.446 16.446 0 000 2H17zm.35-4.69l.52-1.93 2.93.78c-.22.63-.39 1.27-.52 1.93l-2.93-.78zm1.56-4.44l1-1.74 2.63 1.52c-.37.55-.71 1.13-1 1.73l-2.63-1.51zm2.65-3.89l1.42-1.41 2.14 2.14c-.5.44-.97.91-1.41 1.41l-2.15-2.14zm3.57-3.07l1.74-1 1.51 2.63c-.6.29-1.18.63-1.73 1l-1.52-2.63zm4.25-2.04l1.93-.52.78 2.93c-.66.13-1.3.3-1.93.52l-.78-2.93z" opacity=".569" fill="url(#f)"/><path d="M34 7h2v3h-2V7zm0 33h2v3h-2v-3zM17 26v-2h3v2h-3zm33 0v-2h3v2h-3z" fill="url(#g)"/><path d="M35 32c1.66 0 3 1.34 3 3s-1.34 3-3 3-3-1.34-3-3 1.34-3 3-3zm5 3v-1h3v1h-3zm-13 0v-1h3v1h-3zm5-18v-1h6v1h-6z" fill="none" stroke="#bb9c66"/></svg>