<svg version="1.2" baseProfile="tiny-ps" xmlns="http://www.w3.org/2000/svg" viewBox="0 0 144 33" width="144" height="33">
	<title>header</title>
	<defs>
		<linearGradient id="grd1" gradientUnits="userSpaceOnUse"  x1="88.779" y1="29.71" x2="88.779" y2="2.793">
			<stop offset="0" stop-color="#af8954"  />
			<stop offset="1" stop-color="#c6ab77"  />
		</linearGradient>
		<linearGradient id="grd2" gradientUnits="userSpaceOnUse"  x1="14" y1="32.028" x2="14" y2="0.024">
			<stop offset="0" stop-color="#af8954"  />
			<stop offset="1" stop-color="#c6ab77"  />
		</linearGradient>
	</defs>
	<style>
		tspan { white-space:pre }
		.shp0 { fill: url(#grd1) } 
		.shp1 { fill: url(#grd2) } 
	</style>
	<g id="header">
		<g id="logo1">
			<path id="Shape 12" class="shp0" d="M143.72 21.76C143.54 21.74 143.38 21.84 143.23 22.05C143.08 22.27 142.96 22.44 142.88 22.56C142.42 23.19 141.97 23.83 141.52 24.49C141.07 25.15 140.57 25.77 140.03 26.34C139.91 26.46 139.77 26.6 139.62 26.75C139.47 26.91 139.31 27.04 139.13 27.16C138.96 27.27 138.78 27.36 138.59 27.42C138.41 27.49 138.22 27.49 138.03 27.44C137.83 27.38 137.73 27.24 137.72 27.01C137.71 26.78 137.75 26.52 137.82 26.23C137.89 25.95 137.97 25.67 138.08 25.41C138.19 25.16 138.26 24.98 138.32 24.89C138.46 24.57 138.61 24.25 138.78 23.93C138.94 23.61 139.12 23.28 139.32 22.96C139.93 21.89 140.63 20.83 141.4 19.78C141.59 19.53 141.79 19.28 141.98 19.04C142.17 18.8 142.37 18.55 142.59 18.3C142.73 18.12 142.9 17.92 143.11 17.7C143.32 17.48 143.44 17.24 143.46 16.99C143.47 16.74 143.39 16.58 143.22 16.51C143.04 16.44 142.86 16.43 142.66 16.48C142 16.68 141.34 16.81 140.69 16.88C140.19 16.94 139.69 16.85 139.21 16.61C138.76 16.36 138.38 15.77 137.89 16.49C137.81 16.58 137.73 16.7 137.66 16.83C137.56 16.99 137.43 17.4 137.31 17.85C137.31 17.86 137.31 17.86 137.31 17.86C136.51 20.44 130.93 27.89 128.44 27.89C127.93 27.89 127.56 27.7 127.28 27.41C127.21 27.33 127.15 27.24 127.11 27.14C126.99 26.91 126.93 26.66 126.92 26.38C126.91 26.1 126.95 25.82 127.04 25.54C127.16 25.09 127.32 24.73 127.5 24.45C127.68 24.17 127.9 23.95 128.15 23.77C128.39 23.59 128.68 23.44 129 23.31C129.33 23.19 129.69 23.04 130.1 22.88C130.45 22.74 130.85 22.56 131.31 22.35C131.76 22.13 132.22 21.88 132.66 21.58C133.11 21.29 133.53 20.97 133.93 20.62C134.33 20.27 134.64 19.9 134.88 19.49C135.12 19.09 135.25 18.66 135.29 18.21C135.32 17.75 135.21 17.28 134.94 16.8C134.7 16.34 134.16 16.15 133.34 16.24C132.58 16.33 131.84 16.53 131.11 16.84C130.38 17.16 129.71 17.53 129.09 17.98C128.09 18.7 127.24 19.53 126.53 20.49C125.84 21.4 125.28 22.39 124.81 23.44C124.64 23.68 124.46 23.92 124.27 24.14C123.97 24.5 123.67 24.83 123.36 25.15C123.06 25.46 122.75 25.78 122.45 26.1C122.16 26.4 121.86 26.7 121.56 27C121.26 27.29 120.91 27.51 120.5 27.65C120.36 27.69 120.23 27.7 120.1 27.68C119.96 27.66 119.9 27.56 119.9 27.38C119.92 27.17 119.97 26.96 120.06 26.74C120.2 26.35 120.35 25.97 120.53 25.6C120.71 25.24 120.9 24.88 121.11 24.52C121.62 23.61 122.12 22.69 122.61 21.77C123.1 20.85 123.63 19.94 124.19 19.03C124.76 18.13 125.3 17.24 125.81 16.33C126.33 15.43 126.84 14.51 127.33 13.56C127.63 13.03 127.93 12.49 128.22 11.95C128.52 11.42 128.85 10.9 129.2 10.4C129.36 10.19 129.52 9.96 129.67 9.73C129.83 9.5 129.98 9.25 130.11 8.99C130.24 8.73 130.34 8.47 130.41 8.2C130.48 7.94 130.49 7.67 130.44 7.4C130.37 7.02 130.21 6.85 129.96 6.86C129.72 6.88 129.46 6.92 129.2 6.97C129.04 7.01 128.87 7.02 128.67 7C128.48 6.98 128.28 6.98 128.08 6.98C127.88 6.99 127.69 7.02 127.51 7.06C127.34 7.11 127.19 7.2 127.07 7.35C126.98 7.45 126.94 7.58 126.95 7.73C126.96 7.89 126.95 8.03 126.93 8.15C126.9 8.33 126.86 8.49 126.82 8.65C126.77 8.8 126.71 8.94 126.64 9.09C126.5 9.41 126.34 9.71 126.16 10C125.97 10.28 125.79 10.58 125.62 10.88C125.28 11.45 124.95 12.03 124.63 12.61C124.3 13.19 123.98 13.77 123.67 14.34C123.47 14.7 123.28 15.06 123.09 15.42C122.89 15.79 122.67 16.13 122.43 16.45C122.29 16.63 122.17 16.76 122.09 16.84C122 16.92 121.91 16.96 121.82 16.96C121.73 16.96 121.64 16.93 121.53 16.86C121.43 16.78 121.29 16.7 121.14 16.59C120.8 16.36 120.43 16.24 120.02 16.25C119.6 16.26 119.19 16.33 118.78 16.47C118.37 16.6 117.97 16.78 117.58 16.99C117.19 17.2 116.86 17.41 116.58 17.61C115.63 18.27 114.72 19.04 113.85 19.94C113.11 20.69 112.49 21.5 111.98 22.36C111.92 22.46 111.87 22.54 111.84 22.59C111.59 22.98 111.33 23.36 111.04 23.71C110.76 24.07 110.47 24.43 110.18 24.79C109.82 25.2 109.47 25.59 109.12 25.96C108.77 26.34 108.4 26.71 108.01 27.09C107.94 27.14 107.85 27.22 107.72 27.33C107.6 27.44 107.47 27.54 107.33 27.64C107.19 27.74 107.05 27.81 106.91 27.85C106.77 27.9 106.64 27.89 106.54 27.84C106.4 27.77 106.33 27.66 106.33 27.52C106.33 27.37 106.35 27.25 106.38 27.14C106.52 26.52 106.77 25.93 107.12 25.37C107.47 24.82 107.8 24.29 108.12 23.77C108.28 23.52 108.43 23.27 108.57 23.02C108.71 22.77 108.85 22.52 108.99 22.27C109.48 21.41 109.96 20.56 110.44 19.71C110.91 18.86 111.42 18.03 111.97 17.2C112 17.15 112.05 17.08 112.1 16.99C112.15 16.9 112.2 16.82 112.23 16.74C112.27 16.65 112.27 16.57 112.26 16.48C112.24 16.39 112.19 16.32 112.1 16.27C111.96 16.18 111.82 16.16 111.68 16.23C111.54 16.29 111.4 16.32 111.26 16.32C110.96 16.34 110.65 16.34 110.32 16.32C110 16.3 109.7 16.35 109.44 16.45C109.23 16.54 109.07 16.68 108.96 16.86C108.93 16.89 108.86 16.99 108.77 17.14C108.67 17.29 108.63 17.38 108.65 17.42C108.51 17.22 108.39 17.02 108.29 16.8C108.19 16.59 108.02 16.45 107.78 16.37C107.62 16.32 107.46 16.28 107.29 16.27C107.12 16.25 106.96 16.23 106.8 16.21C106.45 16.21 106.11 16.28 105.79 16.4C105.46 16.53 105.14 16.65 104.83 16.78C104.44 16.92 104.08 17.09 103.73 17.28C103.39 17.48 103.05 17.69 102.72 17.9C102.49 18.06 102.27 18.22 102.06 18.38C101.85 18.54 101.65 18.71 101.45 18.89C100.75 19.52 100.13 20.2 99.58 20.93C99.27 21.35 98.97 21.79 98.67 22.24C98.59 22.37 98.51 22.48 98.45 22.56C97.99 23.19 97.54 23.83 97.09 24.49C96.65 25.15 96.15 25.77 95.6 26.34C95.48 26.46 95.34 26.6 95.2 26.75C95.05 26.91 94.88 27.04 94.71 27.16C94.53 27.27 94.35 27.36 94.17 27.42C93.98 27.49 93.79 27.49 93.6 27.44C93.41 27.38 93.31 27.24 93.3 27.01C93.29 26.78 93.32 26.52 93.39 26.23C93.46 25.95 93.55 25.67 93.65 25.41C93.76 25.16 93.84 24.98 93.89 24.89C94.03 24.57 94.19 24.25 94.35 23.93C94.52 23.61 94.7 23.28 94.89 22.96C95.51 21.89 96.2 20.83 96.97 19.78C97.17 19.53 97.36 19.28 97.55 19.04C97.75 18.8 97.95 18.55 98.16 18.3C98.3 18.12 98.48 17.92 98.69 17.7C98.9 17.48 99.01 17.24 99.03 16.99C99.05 16.74 98.97 16.58 98.79 16.51C98.62 16.44 98.43 16.43 98.24 16.48C97.57 16.68 96.91 16.81 96.26 16.88C95.76 16.94 95.27 16.85 94.79 16.61C94.34 16.36 93.95 15.77 93.47 16.49C93.38 16.58 93.31 16.7 93.23 16.83C93.14 16.99 93.01 17.4 92.89 17.85C92.89 17.86 92.89 17.86 92.89 17.86C92.08 20.44 87.3 27.41 84.8 27.41C84.68 27.41 84.56 27.4 84.45 27.38C84.37 27.36 84.29 27.32 84.22 27.28C84.06 27.17 83.95 27.01 83.88 26.79C83.81 26.58 83.82 26.32 83.9 26.02C83.99 25.63 84.13 25.25 84.33 24.89C84.52 24.54 84.73 24.19 84.96 23.85C85.85 22.53 86.71 21.2 87.51 19.86C88.32 18.52 89.14 17.17 89.97 15.81C90.14 15.51 90.33 15.24 90.55 15.02C90.76 14.8 91.05 14.69 91.41 14.69C91.68 14.67 91.96 14.68 92.27 14.73C92.58 14.77 92.85 14.72 93.1 14.58C93.22 14.51 93.33 14.36 93.42 14.15C93.5 13.94 93.49 13.78 93.36 13.67C93.26 13.6 93.13 13.56 92.98 13.55C92.83 13.54 92.67 13.54 92.51 13.55C92.34 13.56 92.18 13.57 92.02 13.57C91.86 13.58 91.73 13.57 91.63 13.53C91.77 13.03 92 12.56 92.34 12.1C92.67 11.65 92.96 11.2 93.21 10.77C93.43 10.38 93.67 10 93.9 9.62C94.14 9.25 94.33 8.86 94.47 8.44C94.54 8.27 94.62 8.07 94.69 7.84C94.77 7.62 94.77 7.42 94.68 7.24C94.54 6.99 94.34 6.87 94.08 6.88C93.81 6.89 93.58 6.91 93.36 6.94C93.19 6.98 93 6.99 92.78 6.97C92.57 6.95 92.36 6.94 92.15 6.94C91.94 6.94 91.74 6.96 91.55 7C91.35 7.03 91.19 7.1 91.05 7.21C90.92 7.32 90.82 7.46 90.74 7.63C90.66 7.8 90.59 7.98 90.53 8.16C90.47 8.35 90.41 8.54 90.36 8.73C90.31 8.91 90.26 9.08 90.2 9.22C90.04 9.6 89.87 9.96 89.69 10.32C89.5 10.68 89.31 11.03 89.12 11.39C89.02 11.59 88.9 11.8 88.78 12.02C88.66 12.24 88.52 12.46 88.36 12.66C88.2 12.87 88.02 13.04 87.83 13.19C87.64 13.33 87.42 13.42 87.17 13.45C87.05 13.47 86.89 13.47 86.68 13.44C86.48 13.41 86.28 13.4 86.08 13.41C85.88 13.42 85.69 13.46 85.53 13.53C85.36 13.61 85.26 13.74 85.22 13.94C85.19 14.15 85.24 14.29 85.38 14.36C85.52 14.44 85.69 14.48 85.88 14.49C86.07 14.49 86.28 14.5 86.49 14.51C86.7 14.52 86.86 14.57 86.96 14.66C86.84 14.71 86.75 14.81 86.68 14.95C86.62 15.1 86.57 15.22 86.51 15.33C86.36 15.62 86.14 15.92 85.88 16.24C85.04 17.4 84.23 18.6 83.47 19.83C82.89 20.77 82.35 21.71 81.82 22.67C81.81 22.68 81.8 22.69 81.8 22.7C81.5 23.03 81.24 23.4 81.02 23.79C80.8 24.19 80.55 24.56 80.27 24.92C80.02 25.26 79.77 25.59 79.5 25.91C79.24 26.23 78.94 26.53 78.61 26.79C78.36 26.99 78.12 27.17 77.87 27.34C77.62 27.51 77.34 27.61 77.03 27.63C76.71 27.66 76.47 27.56 76.32 27.32C76.16 27.08 76.03 26.82 75.95 26.55C75.84 26.3 75.78 26.03 75.78 25.72C75.77 25.42 75.75 25.12 75.74 24.84C75.74 24.43 75.74 24.06 75.76 23.73C75.78 23.4 75.92 23.06 76.18 22.72C76.64 22.12 77.12 21.5 77.62 20.87C78.12 20.25 78.7 19.75 79.37 19.37C79.53 19.3 79.7 19.23 79.87 19.16C80.05 19.09 80.22 19.04 80.4 19.01C80.58 18.99 80.75 19 80.91 19.05C81.08 19.11 81.23 19.21 81.37 19.37C81.52 19.57 81.65 19.66 81.78 19.66C81.92 19.65 82.07 19.57 82.24 19.43C82.38 19.3 82.54 19.11 82.71 18.85C82.87 18.59 83 18.31 83.1 18.01C83.2 17.7 83.24 17.41 83.23 17.14C83.22 16.86 83.11 16.64 82.9 16.48C82.66 16.28 82.37 16.2 82.05 16.21C81.72 16.23 81.44 16.28 81.19 16.37C80.8 16.52 80.44 16.74 80.08 17.04C79.47 17.54 78.92 18.11 78.44 18.73C77.95 19.36 77.46 19.97 76.95 20.58C76.82 20.72 76.71 20.86 76.59 20.98C76.48 21.11 76.37 21.24 76.26 21.38C76.16 21.53 76.09 21.58 76.05 21.54C76.02 21.51 76 21.43 76.01 21.32C76.02 21.2 76.04 21.07 76.07 20.93C76.09 20.78 76.1 20.69 76.1 20.63C76.17 20.17 76.29 19.71 76.45 19.27C76.61 18.82 76.77 18.37 76.95 17.93C76.97 17.86 77 17.76 77.05 17.65C77.11 17.53 77.15 17.41 77.17 17.28C77.2 17.16 77.21 17.04 77.2 16.94C77.19 16.83 77.13 16.75 77.03 16.7C76.92 16.62 76.8 16.6 76.66 16.63C76.52 16.65 76.39 16.68 76.29 16.7C76.1 16.73 75.9 16.88 75.71 16.89C75.52 16.91 75.32 17.04 75.13 17.04C74.99 17.04 74.84 17.04 74.67 17.04C74.5 17.04 74.37 16.96 74.26 17.05C74.23 17.09 74.2 17.09 74.19 17.17C74.19 17.25 74.16 17.29 74.13 17.34C73.99 17.68 73.82 18 73.63 18.32C73.43 18.64 73.24 18.94 73.05 19.25C72.85 19.59 72.65 19.92 72.44 20.25C72.23 20.58 72.01 20.9 71.78 21.22C71.64 21.42 71.49 21.61 71.32 21.79C71.16 21.96 71.02 22.17 70.91 22.4C70.91 22.41 70.91 22.41 70.91 22.42C70.9 22.43 70.89 22.43 70.89 22.44C70.8 22.56 70.74 22.65 70.7 22.72C70.4 23.22 70.09 23.7 69.75 24.14C69.42 24.59 69.07 25.04 68.7 25.51C68.56 25.67 68.43 25.82 68.31 25.96C68.18 26.11 68.05 26.26 67.91 26.42C67.75 26.56 67.6 26.71 67.46 26.87C67.32 27.04 67.16 27.19 66.99 27.33C66.85 27.44 66.69 27.56 66.51 27.69C66.34 27.83 66.15 27.87 65.96 27.81C65.57 27.74 65.56 27.23 65.91 26.29C66.17 25.57 66.5 24.9 66.91 24.28C67.35 23.6 67.76 22.89 68.13 22.16C68.51 21.43 68.93 20.72 69.39 20.04C69.65 19.65 69.92 19.21 70.2 18.73C70.33 18.52 70.45 18.3 70.58 18.09C70.72 17.87 70.81 17.65 70.86 17.42C70.9 17.31 70.93 17.19 70.97 17.04C71 16.9 71.02 16.77 71.02 16.65C71.02 16.54 70.99 16.44 70.93 16.36C70.87 16.28 70.75 16.24 70.57 16.24C70.4 16.24 70.22 16.25 70.06 16.28C69.89 16.31 69.72 16.31 69.54 16.29C69.39 16.28 69.23 16.26 69.07 16.25C68.91 16.24 68.75 16.26 68.6 16.29C68.37 16.33 68.16 16.38 67.99 16.45C67.87 16.53 67.79 16.6 67.75 16.67C67.72 16.74 67.67 16.84 67.62 16.96C67.6 17 67.57 17.07 67.53 17.18C67.48 17.28 67.44 17.4 67.41 17.53C67.16 18.31 66.83 19.06 66.41 19.76C65.99 20.47 65.56 21.16 65.14 21.84C64.84 22.36 64.55 22.82 64.25 23.23C64.02 23.55 63.79 23.87 63.56 24.2C63.33 24.52 63.1 24.83 62.85 25.13C62.71 25.31 62.58 25.5 62.46 25.68C62.33 25.87 62.19 26.04 62.03 26.21C61.93 26.31 61.76 26.49 61.53 26.74C61.3 26.99 61.05 27.22 60.77 27.44C60.49 27.65 60.22 27.8 59.97 27.89C59.71 27.98 59.5 27.9 59.35 27.65C59.22 27.46 59.21 27.21 59.32 26.93C59.43 26.64 59.52 26.4 59.61 26.21C59.86 25.71 60.12 25.23 60.41 24.77C60.7 24.32 61 23.86 61.3 23.39C61.59 22.93 61.87 22.46 62.13 22C62.38 21.54 62.65 21.07 62.93 20.61C63.18 20.2 63.42 19.78 63.67 19.36C63.91 18.94 64.12 18.5 64.3 18.03C64.37 17.84 64.45 17.6 64.52 17.31C64.6 17.03 64.6 16.78 64.51 16.59C64.48 16.48 64.4 16.41 64.29 16.37C64.17 16.34 64.05 16.32 63.91 16.33C63.76 16.34 63.62 16.36 63.48 16.39C63.34 16.41 63.24 16.43 63.17 16.43C62.94 16.43 62.71 16.41 62.49 16.37C62.28 16.34 62.05 16.35 61.82 16.4C61.52 16.47 61.37 16.61 61.36 16.83C61.35 17.04 61.32 17.28 61.27 17.53C61.23 17.7 61.19 17.87 61.13 18.02C61.06 18.17 60.99 18.33 60.9 18.49C60.71 18.9 60.49 19.29 60.26 19.67C60.02 20.04 59.79 20.42 59.56 20.79C59.31 21.22 59.06 21.65 58.79 22.07C58.57 22.43 58.35 22.78 58.14 23.13C58.16 23.05 58.17 22.97 58.19 22.88C58.22 22.63 58.24 22.29 58.25 21.87C58.26 21.44 58.23 21.01 58.17 20.58C58.11 20.15 57.99 19.77 57.82 19.43C57.64 19.09 57.39 18.88 57.05 18.81C56.79 18.74 56.62 18.81 56.55 19.03C56.48 19.24 56.46 19.44 56.5 19.62C56.61 20.24 56.66 20.82 56.67 21.37C56.68 21.91 56.59 22.5 56.4 23.12C56.25 23.57 56.09 24.04 55.89 24.54C55.7 25.04 55.47 25.51 55.2 25.95C54.92 26.39 54.6 26.77 54.22 27.09C53.84 27.41 53.39 27.62 52.86 27.71C52.41 27.78 51.95 27.78 51.51 27.72C51.06 27.66 50.62 27.56 50.18 27.42C49.74 27.29 49.3 27.14 48.87 26.97C48.44 26.8 48.02 26.64 47.59 26.5C47.51 26.46 47.39 26.43 47.24 26.41C47.09 26.38 46.94 26.34 46.8 26.3C46.66 26.25 46.54 26.2 46.43 26.13C46.33 26.05 46.29 25.95 46.3 25.8C46.32 25.63 46.43 25.45 46.62 25.29C46.81 25.13 46.97 24.99 47.09 24.87C47.39 24.56 47.67 24.23 47.92 23.87C48.18 23.52 48.43 23.16 48.67 22.8C49.08 22.23 49.46 21.64 49.83 21.03C50.2 20.43 50.54 19.79 50.84 19.13C50.94 18.88 51.04 18.62 51.12 18.36C51.21 18.09 51.39 17.88 51.65 17.74C52.11 17.49 52.59 17.25 53.09 17.02C53.59 16.78 54.08 16.54 54.55 16.29C55.55 15.79 56.5 15.19 57.41 14.49C58.31 13.78 59.17 13.03 59.98 12.25C60.38 11.84 60.77 11.42 61.14 10.99C61.51 10.56 61.86 10.11 62.19 9.65C62.44 9.35 62.67 9.03 62.88 8.71C63.09 8.39 63.28 8.06 63.46 7.72C63.65 7.33 63.81 6.86 63.93 6.33C64.05 5.79 64.09 5.28 64.04 4.79C63.98 4.3 63.81 3.86 63.52 3.49C63.23 3.11 62.79 2.89 62.19 2.82C61.28 2.73 60.35 2.87 59.41 3.23C58.47 3.6 57.63 4.03 56.9 4.53C55.89 5.19 54.96 5.98 54.1 6.89C53.24 7.8 52.46 8.75 51.76 9.73C51.32 10.32 50.91 10.93 50.55 11.55C50.18 12.18 49.82 12.81 49.46 13.45C49.29 13.78 49.12 14.1 48.96 14.42C48.81 14.74 48.65 15.06 48.49 15.38C48.37 15.63 48.24 15.89 48.11 16.15C47.98 16.41 47.82 16.62 47.65 16.8C47.47 16.98 47.26 17.11 47.01 17.19C46.77 17.27 46.48 17.27 46.14 17.18C45.42 16.98 44.81 16.66 44.3 16.21C43.79 15.77 43.4 15.24 43.11 14.65C42.83 14.05 42.66 13.4 42.6 12.72C42.54 12.03 42.6 11.34 42.77 10.64C42.91 10.03 43.14 9.45 43.47 8.89C43.79 8.32 44.19 7.83 44.66 7.4C45.12 6.97 45.64 6.63 46.22 6.37C46.8 6.11 47.42 5.98 48.07 5.98C48.19 5.98 48.4 6.01 48.69 6.07C48.98 6.14 49.26 6.17 49.54 6.18C49.82 6.19 50.06 6.15 50.24 6.07C50.43 5.99 50.47 5.8 50.39 5.5C50.3 5.23 50.14 5.05 49.91 4.95C49.68 4.85 49.43 4.79 49.15 4.77C48.87 4.76 48.59 4.77 48.31 4.8C48.02 4.84 47.8 4.86 47.62 4.88C46.67 5.02 45.77 5.31 44.91 5.74C44.17 6.11 43.48 6.57 42.84 7.12C42.2 7.66 41.65 8.27 41.19 8.95C40.84 9.47 40.53 10.06 40.27 10.71C40.01 11.36 39.87 12.01 39.87 12.65C39.87 13.49 39.99 14.28 40.23 15.03C40.47 15.78 40.91 16.45 41.56 17.02C41.91 17.34 42.31 17.61 42.75 17.82C43.18 18.03 43.64 18.2 44.12 18.33C44.55 18.44 45 18.49 45.45 18.48C45.89 18.47 46.33 18.51 46.75 18.6C46.77 18.6 46.72 18.74 46.59 19.01C46.47 19.29 46.33 19.6 46.17 19.94C46.01 20.28 45.86 20.6 45.72 20.9C45.58 21.2 45.5 21.38 45.49 21.44C45.2 22.01 44.91 22.58 44.6 23.14C44.3 23.7 43.91 24.21 43.46 24.68C43.25 24.89 43.02 25 42.79 24.99C42.55 24.98 42.29 24.95 42.01 24.89C41.38 24.79 40.72 24.73 40.03 24.73C39.35 24.73 38.69 24.78 38.06 24.87C37.65 24.92 37.26 24.96 36.88 25C36.5 25.04 36.11 25.12 35.71 25.27C35.36 25.39 35.02 25.55 34.7 25.75C34.37 25.95 34.11 26.18 33.91 26.45C33.7 26.71 33.59 27.01 33.56 27.33C33.54 27.65 33.65 28.01 33.92 28.4C34.25 28.88 34.68 29.18 35.2 29.3C35.71 29.42 36.24 29.5 36.76 29.55C37.24 29.59 37.69 29.59 38.13 29.57C38.57 29.54 39.02 29.48 39.48 29.39C39.97 29.29 40.45 29.16 40.91 29.02C41.38 28.88 41.83 28.7 42.27 28.48C42.68 28.29 43.06 28.13 43.42 28.03C43.78 27.92 44.19 27.94 44.64 28.08C45.2 28.28 45.74 28.48 46.26 28.7C46.78 28.91 47.33 29.06 47.91 29.15C48.37 29.22 48.84 29.31 49.32 29.38C49.8 29.44 50.28 29.5 50.76 29.5L50.78 29.5C51.78 29.5 52.75 29.22 53.67 28.83C54.59 28.44 55.4 27.87 56.11 27.16C56.22 27.03 56.32 26.9 56.42 26.77C56.41 26.83 56.39 26.88 56.38 26.93C56.3 27.36 56.32 27.8 56.42 28.24C56.46 28.42 56.53 28.62 56.65 28.83C56.76 29.05 56.9 29.2 57.05 29.29C57.14 29.34 57.23 29.38 57.3 29.42C57.38 29.46 57.47 29.49 57.55 29.53C57.75 29.6 57.96 29.63 58.2 29.62C58.44 29.61 58.65 29.59 58.85 29.55C59.18 29.48 59.49 29.34 59.77 29.14C60.05 28.93 60.32 28.73 60.58 28.54C61.06 28.16 61.53 27.71 62.01 27.2C62.17 27.05 62.32 26.9 62.47 26.73C62.62 26.56 62.73 26.44 62.8 26.37C62.96 26.17 63.04 26.08 63.06 26.11C63.08 26.14 63.05 26.31 62.98 26.63C62.89 26.97 62.85 27.37 62.84 27.81C62.83 28.26 62.94 28.62 63.17 28.91C63.41 29.23 63.75 29.43 64.17 29.5C64.59 29.57 64.98 29.56 65.33 29.47C65.85 29.33 66.34 29.07 66.78 28.7C67.04 28.47 67.28 28.24 67.51 28.01C67.51 28.02 67.5 28.03 67.5 28.04C67.48 28.35 67.53 28.65 67.67 28.94C67.87 29.28 68.17 29.44 68.6 29.52C68.68 29.54 68.77 29.5 68.86 29.5C68.95 29.5 69.03 29.5 69.12 29.5C69.42 29.5 69.71 29.47 69.98 29.35C70.25 29.24 70.51 29.12 70.76 28.94C70.98 28.78 71.19 28.61 71.39 28.4C71.58 28.2 71.77 27.99 71.97 27.78C72.13 27.58 72.29 27.4 72.46 27.22C72.62 27.04 72.78 26.86 72.94 26.66C72.98 26.62 73 26.59 73.01 26.57C73.02 26.54 73.04 26.54 73.07 26.58C73.13 26.62 73.17 26.7 73.19 26.82C73.22 26.95 73.24 27.04 73.26 27.09C73.38 27.52 73.55 27.92 73.77 28.31C73.99 28.69 74.3 29 74.71 29.23C74.9 29.34 75.11 29.41 75.33 29.45C75.55 29.48 75.76 29.48 75.97 29.45C76.17 29.43 76.38 29.39 76.62 29.33C76.86 29.26 77.07 29.17 77.26 29.04C77.6 28.85 77.92 28.61 78.24 28.33C78.56 28.06 78.84 27.76 79.08 27.44C79.19 27.3 79.31 27.16 79.44 27.04C79.57 26.91 79.7 26.78 79.82 26.63C80.03 26.35 80.24 26.08 80.44 25.81C80.4 26.01 80.36 26.21 80.33 26.42C80.27 26.94 80.3 27.43 80.41 27.91C80.5 28.27 80.68 28.59 80.96 28.87C81.31 29.53 82.01 29.69 82.69 29.65C83.05 29.68 83.4 29.64 83.75 29.53C84.06 29.42 84.37 29.28 84.67 29.11C89.36 26.78 92.31 20.11 93 19.34C93.18 19.21 93.36 19.12 93.47 19.13C93.65 19.17 93.81 19.23 93.97 19.32C94.13 19.41 94.3 19.45 94.47 19.45C94.52 19.45 94.6 19.45 94.69 19.43C94.79 19.41 94.88 19.4 94.96 19.4C95.04 19.4 95.1 19.41 95.14 19.44C95.19 19.47 95.18 19.53 95.13 19.64C95.08 19.78 94.94 19.94 94.72 20.1C94.5 20.26 94.34 20.39 94.23 20.5C93.62 21.12 93 21.79 92.39 22.48C91.77 23.18 91.27 23.93 90.89 24.73C90.75 25 90.62 25.29 90.49 25.59C90.37 25.89 90.26 26.2 90.18 26.5C90.09 26.8 90.04 27.11 90.02 27.42C90 27.74 90.04 28.05 90.12 28.37C90.19 28.64 90.31 28.86 90.48 29.03C90.65 29.2 90.83 29.33 91.05 29.42C91.26 29.51 91.49 29.56 91.74 29.58C92 29.6 92.25 29.59 92.49 29.55C93.22 29.41 93.85 29.11 94.41 28.66C94.96 28.2 95.46 27.71 95.92 27.17C96.13 26.92 96.34 26.66 96.55 26.38C96.75 26.12 96.93 25.87 97.11 25.62C97.07 25.85 97.03 26.07 97 26.29C96.96 26.57 96.95 26.88 96.96 27.21C96.97 27.54 97.02 27.86 97.11 28.16C97.19 28.46 97.33 28.74 97.51 28.98C97.7 29.22 97.95 29.39 98.27 29.5L98.32 29.53C98.72 29.63 99.14 29.63 99.58 29.51C100.02 29.4 100.42 29.23 100.77 29.02C101.45 28.62 102.07 28.13 102.61 27.54C102.74 27.4 102.85 27.27 102.97 27.14C103.08 27.02 103.21 26.89 103.35 26.77C103.42 26.7 103.5 26.61 103.57 26.51C103.65 26.42 103.74 26.36 103.82 26.34C103.84 26.43 103.83 26.52 103.8 26.61C103.76 26.7 103.73 26.79 103.69 26.87C103.61 27.27 103.6 27.67 103.68 28.08C103.76 28.49 103.95 28.84 104.25 29.13C104.56 29.45 104.91 29.6 105.3 29.58C105.69 29.56 106.07 29.46 106.46 29.27C106.85 29.08 107.21 28.84 107.55 28.55C107.9 28.25 108.18 27.98 108.41 27.73C108.74 27.37 109.07 27.01 109.4 26.65C109.72 26.28 110.04 25.91 110.36 25.54C110.5 25.38 110.63 25.22 110.76 25.07C110.59 25.58 110.47 26.1 110.4 26.62C110.3 27.33 110.37 27.96 110.6 28.54C110.82 29.11 111.33 29.46 112.1 29.61C112.45 29.64 112.77 29.63 113.07 29.58C113.5 29.51 113.88 29.38 114.22 29.19C114.56 29 114.89 28.78 115.19 28.52C115.5 28.26 115.79 27.99 116.06 27.69C116.34 27.4 116.6 27.1 116.87 26.79C116.96 26.71 117.03 26.62 117.11 26.54C117.18 26.46 117.22 26.4 117.24 26.37C117.27 26.29 117.32 26.26 117.37 26.26C117.33 26.53 117.31 26.74 117.29 26.9C117.27 27.06 117.25 27.22 117.24 27.37C117.22 27.52 117.21 27.62 117.21 27.65C117.21 27.9 117.25 28.15 117.32 28.4C117.39 28.65 117.51 28.87 117.68 29.04C117.93 29.3 118.23 29.43 118.58 29.45C118.93 29.46 119.26 29.45 119.56 29.39C119.82 29.34 120.06 29.25 120.28 29.14C120.5 29.02 120.71 28.88 120.9 28.7C121.71 28 122.48 27.25 123.22 26.46C123.51 26.14 123.79 25.82 124.07 25.5C123.99 25.85 123.93 26.21 123.92 26.57C123.89 27.09 123.97 27.59 124.14 28.05C124.32 28.52 124.66 28.9 125.17 29.21C125.53 29.42 125.93 29.5 126.35 29.55C126.75 29.64 127.2 29.89 127.6 29.5C127.61 29.5 127.61 29.5 127.61 29.5C127.61 29.5 127.61 29.5 127.61 29.5C127.79 29.5 127.96 29.48 128.11 29.43C128.16 29.42 128.2 29.43 128.25 29.42C128.42 29.37 128.57 29.33 128.67 29.29C128.69 29.29 128.71 29.29 128.73 29.28C128.74 29.27 128.75 29.27 128.77 29.26C128.82 29.24 128.85 29.23 128.85 29.23C128.88 29.22 128.9 29.21 128.93 29.19C129.55 28.92 130.12 28.58 130.64 28.16C130.64 28.15 130.65 28.15 130.65 28.14C134.44 25.31 136.82 20.03 137.43 19.34C137.6 19.21 137.78 19.12 137.9 19.13C138.07 19.17 138.24 19.23 138.4 19.32C138.55 19.41 138.72 19.45 138.9 19.45C138.95 19.45 139.02 19.45 139.12 19.43C139.22 19.41 139.3 19.4 139.38 19.4C139.46 19.4 139.52 19.41 139.57 19.44C139.61 19.47 139.61 19.53 139.56 19.64C139.5 19.78 139.37 19.94 139.15 20.1C138.93 20.26 138.76 20.39 138.66 20.5C138.04 21.12 137.43 21.79 136.82 22.48C136.2 23.18 135.7 23.93 135.31 24.73C135.17 25 135.04 25.29 134.92 25.59C134.79 25.89 134.69 26.2 134.6 26.5C134.51 26.8 134.46 27.11 134.44 27.42C134.43 27.74 134.46 28.05 134.55 28.37C134.62 28.64 134.74 28.86 134.9 29.03C135.07 29.2 135.26 29.33 135.47 29.42C135.68 29.51 135.91 29.56 136.17 29.58C136.42 29.6 136.67 29.59 136.92 29.55C137.64 29.41 138.28 29.11 138.83 28.66C139.38 28.2 139.89 27.71 140.35 27.17C140.56 26.92 140.77 26.66 140.98 26.38C141.19 26.1 141.39 25.83 141.58 25.56C141.83 25.26 142.08 24.95 142.32 24.64C142.57 24.33 142.81 24.01 143.06 23.69C143.11 23.63 143.21 23.51 143.36 23.31C143.51 23.12 143.65 22.91 143.77 22.68C143.89 22.46 143.97 22.25 144 22.07C144.02 21.88 143.93 21.78 143.72 21.76ZM128.58 21.89C128.68 21.7 128.78 21.51 128.9 21.33C129.01 21.15 129.09 21.03 129.12 20.98C129.37 20.61 129.62 20.25 129.89 19.9C130.15 19.55 130.42 19.2 130.7 18.84C130.79 18.73 130.89 18.62 130.99 18.5C131.1 18.39 131.2 18.27 131.31 18.14C131.45 18 131.62 17.83 131.83 17.62C132.05 17.41 132.26 17.28 132.47 17.23C132.63 17.2 132.75 17.24 132.85 17.38C132.95 17.51 132.99 17.65 132.97 17.79C132.95 18.15 132.85 18.5 132.65 18.84C132.46 19.18 132.26 19.48 132.05 19.75C131.69 20.21 131.29 20.66 130.85 21.09C130.4 21.52 129.92 21.88 129.41 22.19C129.38 22.2 129.27 22.26 129.11 22.35C128.94 22.44 128.79 22.5 128.65 22.54C128.47 22.57 128.39 22.52 128.41 22.39C128.43 22.25 128.48 22.09 128.58 21.89ZM52.81 15.41C53.14 14.78 53.47 14.15 53.77 13.51C54.08 12.86 54.39 12.23 54.71 11.61C55.08 10.86 55.46 10.14 55.87 9.45C56.27 8.76 56.69 8.07 57.13 7.37C57.48 6.82 57.85 6.27 58.24 5.74C58.63 5.2 59.09 4.75 59.64 4.37C59.74 4.3 59.92 4.19 60.18 4.04C60.43 3.89 60.69 3.76 60.97 3.66C61.24 3.56 61.49 3.52 61.72 3.54C61.95 3.56 62.1 3.69 62.19 3.92C62.31 4.24 62.34 4.6 62.27 5C62.2 5.4 62.08 5.8 61.9 6.19C61.73 6.59 61.53 6.96 61.32 7.32C61.11 7.68 60.92 7.99 60.74 8.26C60.27 8.99 59.75 9.71 59.19 10.41C58.63 11.12 58.02 11.79 57.37 12.44C56.72 13.08 56.04 13.67 55.33 14.22C54.62 14.76 53.87 15.23 53.1 15.62C52.96 15.69 52.86 15.73 52.78 15.72C52.71 15.71 52.72 15.61 52.81 15.41ZM40.58 27.14C40.34 27.5 40.01 27.8 39.6 28.05C39.18 28.3 38.74 28.47 38.27 28.56C37.77 28.65 37.29 28.65 36.82 28.56C36.34 28.47 35.94 28.25 35.6 27.89C35.45 27.73 35.34 27.51 35.29 27.24C35.24 26.96 35.28 26.72 35.42 26.53C35.53 26.37 35.67 26.24 35.87 26.15C36.06 26.06 36.27 26 36.49 25.96C36.71 25.93 36.93 25.92 37.15 25.94C37.37 25.96 37.56 25.97 37.74 25.99C37.84 26.01 38.07 26.04 38.42 26.1C38.78 26.15 39.13 26.22 39.49 26.31C39.85 26.4 40.15 26.52 40.4 26.66C40.65 26.8 40.71 26.96 40.58 27.14ZM73.81 19.94C73.81 19.97 73.73 20.01 73.72 20.04C73.56 20.72 73.4 21.41 73.32 22.12C73.23 22.83 73.17 23.54 73.17 24.25C73.17 24.46 73.15 24.67 73.14 24.88C73.12 25.08 73.04 25.29 72.92 25.48C72.82 25.68 72.69 25.85 72.54 26C72.39 26.16 72.24 26.3 72.1 26.45C71.96 26.59 71.81 26.73 71.67 26.87C71.52 27.02 71.35 27.15 71.18 27.28C71.13 27.31 71.04 27.37 70.91 27.46C70.79 27.55 70.67 27.63 70.54 27.68C70.42 27.73 70.31 27.75 70.22 27.73C70.12 27.71 70.06 27.63 70.04 27.46C70.04 27.37 70.05 27.29 70.07 27.21C70.09 27.13 70.09 27.05 70.07 26.96C70.04 26.79 69.96 26.64 69.85 26.49C69.73 26.33 69.59 26.25 69.41 26.23C69.3 26.22 69.18 26.23 69.06 26.24C69.08 26.21 69.11 26.18 69.14 26.15C69.51 25.69 69.89 25.22 70.26 24.76C70.45 24.53 70.63 24.3 70.8 24.09C70.96 23.87 71.12 23.64 71.26 23.39C71.31 23.32 71.37 23.23 71.45 23.12C71.53 23.02 71.6 22.9 71.66 22.78C71.68 22.74 71.7 22.7 71.71 22.67C71.87 22.45 72.01 22.26 72.13 22.11C72.3 21.87 72.46 21.64 72.6 21.41C72.74 21.18 72.88 20.94 73.02 20.69C73.11 20.54 73.27 20.39 73.36 20.22C73.46 20.05 73.81 19.92 73.81 19.83L73.81 19.94ZM104.69 23.41C104.18 24.15 103.65 24.88 103.09 25.59C102.75 26 102.4 26.39 102.02 26.75C101.64 27.12 101.22 27.42 100.74 27.65C100.46 27.78 100.21 27.82 99.98 27.77C99.75 27.73 99.56 27.55 99.42 27.25C99.34 27.07 99.31 26.88 99.33 26.67C99.36 26.47 99.41 26.26 99.48 26.04C99.55 25.83 99.63 25.63 99.73 25.43C99.82 25.23 99.91 25.05 99.98 24.89C100.17 24.52 100.36 24.15 100.56 23.79C100.75 23.44 100.96 23.09 101.19 22.75C101.42 22.41 101.64 22.07 101.85 21.73C102.06 21.39 102.29 21.06 102.53 20.74C102.96 20.15 103.42 19.54 103.92 18.92C104.42 18.29 104.98 17.8 105.62 17.45C105.84 17.32 106.12 17.22 106.43 17.15C106.75 17.08 107 17.17 107.2 17.42C107.36 17.63 107.41 17.87 107.37 18.14C107.33 18.41 107.27 18.66 107.2 18.89C107.06 19.28 106.89 19.66 106.7 20.02C106.5 20.37 106.31 20.73 106.12 21.09C105.68 21.89 105.2 22.66 104.69 23.41ZM119.28 20.9C119.13 21.17 118.99 21.41 118.87 21.62C118.47 22.37 118.02 23.09 117.53 23.77C117.03 24.45 116.53 25.11 116 25.75C115.61 26.21 115.21 26.61 114.8 27.05C114.39 27.48 113.9 27.94 113.34 27.94L113.31 27.94C112.91 28.33 112.54 28.13 112.22 27.9C111.89 27.68 111.76 27.36 111.81 26.87C111.86 26.19 112.05 25.57 112.38 24.98C112.7 24.4 113.05 23.85 113.42 23.33C113.84 22.74 114.26 22.16 114.69 21.58C115.12 21 115.59 20.43 116.08 19.88C116.25 19.68 116.46 19.45 116.71 19.17C116.96 18.9 117.22 18.63 117.5 18.38C117.78 18.13 118.08 17.92 118.38 17.75C118.69 17.58 118.99 17.51 119.29 17.53C119.5 17.56 119.68 17.66 119.83 17.83C119.98 18 120.06 18.19 120.08 18.38C120.1 18.65 120.07 18.93 119.99 19.21C119.91 19.5 119.81 19.78 119.69 20.07C119.56 20.36 119.43 20.63 119.28 20.9Z" />
			<path id="Shape 13" class="shp1" d="M0.29 9.21C0.38 9.14 0.48 9.1 0.58 9.1C0.46 8.51 0.58 8.12 0.86 7.89C1.21 7.6 1.62 7.86 2.22 8.54L2.24 8.52C2.23 8.53 2.22 8.52 2.25 8.55C2.43 8.79 2.7 8.83 2.93 8.64C3.09 8.51 3.15 8.26 3.04 8.13L2.81 7.84C2.47 7.42 2.79 6.9 3.21 6.55L8.16 2.48C8.58 2.14 8.81 2.21 9.14 2.64L9.43 2.99C9.51 3.08 9.87 2.89 10 2.78C10.23 2.59 10.38 2.26 10.19 2.03C10.17 2 10.23 1.95 10.23 1.96L10.24 1.94C9.71 1.21 9.54 0.75 9.89 0.46C10.17 0.24 10.6 0.23 11.14 0.46C11.17 0.37 11.21 0.27 11.3 0.19C12.04 -0.41 13.89 0.66 15.45 2.6C17 4.53 17.66 6.59 16.93 7.2C16.84 7.27 16.74 7.31 16.64 7.31C16.75 7.9 16.7 8.36 16.42 8.59C16.05 8.89 15.64 8.63 15.05 7.94L15.04 7.96C15 7.99 14.43 7.89 14.23 8.05C14.1 8.16 13.83 8.47 13.9 8.56L14.2 8.93C14.4 9.18 14.58 9.41 14.51 9.7C14.39 9.23 12.97 7.31 11.66 5.68C10.21 3.87 9.12 2.79 9.12 2.79C9.01 3.01 10.28 4.53 11.38 5.9C12.44 7.22 14.33 9.76 14.63 9.77C14.57 9.93 14.53 10.13 14.39 10.24L13.44 11.02C13.55 10.94 13.69 10.94 13.77 11.04C13.86 11.15 13.83 11.29 13.72 11.37L13.61 11.47C13.68 11.41 13.99 11.7 14.15 11.9C14.89 12.83 15.26 14.01 15.26 14.9C15.15 14.7 14.89 14.19 14.73 13.48C14.51 12.52 13.9 11.36 13.45 11.72C13.01 12.09 14.08 12.73 14.34 13.55C14.55 14.22 15.06 14.75 15.25 14.93C15.25 15.01 15.24 15.08 15.23 15.15C15.74 14.88 16.19 14.82 16.37 15.04C16.49 15.19 16.44 15.47 16.27 15.78C16.7 15.82 17.13 16.04 17.42 16.4C17.93 17.03 18.52 18.88 19.96 20.68C21.45 22.53 26.11 27.22 27.02 28.35C28.06 29.65 28.32 31.18 27.6 31.77L27.57 31.8C26.85 32.39 25.42 31.81 24.38 30.51C23.47 29.38 19.88 23.8 18.4 21.95C16.95 20.16 15.29 19.2 14.78 18.57C14.49 18.2 14.37 17.74 14.42 17.3C14.08 17.41 13.8 17.4 13.68 17.24C13.51 17.03 13.66 16.6 14.02 16.15C13.13 16.05 11.92 15.43 11.1 14.41C10.94 14.2 10.72 13.85 10.79 13.79L10.68 13.88C10.57 13.97 10.42 13.95 10.33 13.84C10.25 13.74 10.26 13.58 10.37 13.49L9.36 14.32C8.94 14.66 8.2 14.56 7.87 14.14L7.62 13.83C7.52 13.7 7.29 13.75 7.14 13.88C6.93 14.05 7.09 14.48 7.05 14.52L7.04 14.53C7.58 15.26 7.75 15.71 7.38 16.01C7.11 16.24 6.65 16.21 6.1 15.98C6.08 16.07 6.02 16.15 5.93 16.23C5.19 16.84 3.33 15.76 1.78 13.82C0.22 11.88 -0.44 9.82 0.29 9.21ZM17.06 5.79C17.06 5.79 16.12 4.06 14.95 2.54C13.78 1.02 12.66 0.3 12.66 0.3C14.75 2.22 17.06 5.79 17.06 5.79ZM12.24 2.04C12.62 1.78 13.08 2.54 14.19 3.6L14.19 3.6C15.53 5.29 16.86 7.14 16.84 7.05C16.82 6.96 15.53 4.6 14.27 3.04C13.02 1.48 11.55 0.13 11.55 0.13C11.47 0.14 11.46 0.2 11.51 0.29C11.39 0.28 11.36 0.42 11.27 0.54C11.05 0.84 11.07 1.93 11.07 1.93C11.24 2.55 11.86 2.3 12.24 2.04ZM12.06 3.72C12.15 3.65 11.97 3.28 11.66 2.89C11.35 2.51 11.02 2.25 10.94 2.33C10.85 2.4 11.03 2.77 11.34 3.16C11.65 3.54 11.97 3.8 12.06 3.72ZM11.28 4.07C11.42 3.96 11.38 3.66 11.17 3.41C10.97 3.16 10.7 3.05 10.56 3.17C10.42 3.28 10.47 3.58 10.67 3.83C10.87 4.08 11.14 4.19 11.28 4.07ZM16.09 15.35C15.94 15.16 15.73 15.08 15.62 15.17C15.51 15.26 15.54 15.49 15.69 15.67C15.85 15.86 16.06 15.94 16.17 15.85C16.28 15.76 16.24 15.53 16.09 15.35ZM17.4 18.58C18.78 20.13 20.17 21.4 23.25 25.57C26.34 29.74 26.98 30.56 27.38 30.23C27.78 29.9 26.36 28.11 25.41 26.94C24.45 25.78 23.73 25.39 21.33 22.55C18.93 19.72 17.48 18.04 17.24 17.18C16.99 16.33 16.74 16.11 16.41 16.15C15.96 16.2 16.02 17.02 17.4 18.58ZM9.33 13.57C9.33 13.57 9.54 13.71 11.69 11.95C13.79 10.22 13.5 10.14 13.5 10.14C13.23 10.2 12.86 10.17 12.67 9.93C12.4 9.6 8.18 4.35 7.92 4.02C7.67 3.71 7.82 3.17 8.08 2.89C8.05 2.91 8.08 2.88 8.05 2.9C8.05 2.9 7.88 2.73 5.73 4.49C3.47 6.35 3.64 6.52 3.64 6.52C3.62 6.54 3.51 6.64 3.49 6.66C3.82 6.46 4.15 6.6 4.4 6.91C4.67 7.24 8.88 12.49 9.15 12.82C9.34 13.06 9.45 13.3 9.33 13.57ZM9.13 14.21C9.24 13.99 7.98 12.46 6.88 11.09C5.78 9.72 3.87 7.1 3.66 7.27C3.45 7.44 5.11 9.54 6.56 11.34C8.01 13.15 9.13 14.21 9.13 14.21ZM4.32 9.8C4.45 9.69 4.39 9.4 4.19 9.15C3.99 8.9 3.72 8.78 3.59 8.89C3.46 9 3.51 9.29 3.71 9.54C3.91 9.79 4.18 9.9 4.32 9.8ZM2.98 11.18C2.89 10.94 1.89 9.81 2.09 9.59C2.2 9.47 2.32 9.56 2.45 9.73C2.48 9.77 2.51 9.81 2.54 9.85C2.61 9.95 2.69 10.07 2.78 10.18C2.81 10.22 2.84 10.24 2.86 10.26C3.12 10.6 3.42 10.97 3.69 11.31C4.61 12.45 5.3 13.13 5.3 13.13C5.36 13 4.52 12.08 3.83 11.21C3.5 10.81 3.01 10.28 2.62 9.79C2.62 9.79 2.62 9.79 2.62 9.79C2.62 9.79 2.11 8.88 1.84 8.81C1.82 8.8 1.83 8.77 1.83 8.78C1.57 8.8 1.19 9.25 1.87 10.09C2.55 10.93 3.07 11.43 2.98 11.18Z" />
		</g>
	</g>
</svg>